<?xml version="1.0" encoding="utf-8"?><svg xmlns="http://www.w3.org/2000/svg" xmlns:xlink="http://www.w3.org/1999/xlink"><symbol fill="none" stroke="currentColor" stroke-linecap="round" stroke-linejoin="round" stroke-width="2" class="aicon aicon-tabler aicons-tabler-outline aicon-tabler-brand-instagram" viewBox="0 0 24 24" id="instagram" xmlns="http://www.w3.org/2000/svg"><path d="M0 0h24v24H0z" stroke="none"/><path d="M4 8a4 4 0 0 1 4-4h8a4 4 0 0 1 4 4v8a4 4 0 0 1-4 4H8a4 4 0 0 1-4-4z"/><path d="M9 12a3 3 0 1 0 6 0 3 3 0 0 0-6 0m7.5-4.5v.01"/></symbol><symbol fill="none" stroke="currentColor" stroke-linecap="round" stroke-linejoin="round" stroke-width="2" class="bicon bicon-tabler bicons-tabler-outline bicon-tabler-brand-tiktok" viewBox="0 0 24 24" id="tiktok" xmlns="http://www.w3.org/2000/svg"><path d="M0 0h24v24H0z" stroke="none"/><path d="M21 7.917v4.034A9.95 9.95 0 0 1 16 10v4.5a6.5 6.5 0 1 1-8-6.326V12.5a2.5 2.5 0 1 0 4 2V3h4.083A6.005 6.005 0 0 0 21 7.917"/></symbol><symbol fill="none" stroke="currentColor" stroke-linecap="round" stroke-linejoin="round" stroke-width="2" class="cicon cicon-tabler cicons-tabler-outline cicon-tabler-brand-x" viewBox="0 0 24 24" id="x" xmlns="http://www.w3.org/2000/svg"><path d="M0 0h24v24H0z" stroke="none"/><path d="m4 4 11.733 16H20L8.267 4zm0 16 6.768-6.768m2.46-2.46L20 4"/></symbol><symbol fill="currentColor" class="dicon dicon-tabler dicons-tabler-filled dicon-tabler-brand-youtube" viewBox="0 0 24 24" id="youtube" xmlns="http://www.w3.org/2000/svg"><path fill="none" d="M0 0h24v24H0z"/><path d="M18 3a5 5 0 0 1 5 5v8a5 5 0 0 1-5 5H6a5 5 0 0 1-5-5V8a5 5 0 0 1 5-5zM9 9v6a1 1 0 0 0 1.514.857l5-3a1 1 0 0 0 0-1.714l-5-3A1 1 0 0 0 9 9"/></symbol></svg>