<?xml version="1.0" encoding="utf-8"?>
<svg xmlns="http://www.w3.org/2000/svg">
	<defs>
		<symbol id="instagram" viewBox="0 0 24 24" fill="none" stroke="currentColor" stroke-linecap="round" stroke-linejoin="round" stroke-width="2" class="aicon aicon-tabler aicons-tabler-outline aicon-tabler-brand-instagram">
			<path d="M0 0h24v24H0z" stroke="none" />
			<path d="M4 8a4 4 0 0 1 4-4h8a4 4 0 0 1 4 4v8a4 4 0 0 1-4 4H8a4 4 0 0 1-4-4z" />
			<path d="M9 12a3 3 0 1 0 6 0 3 3 0 0 0-6 0m7.5-4.5v.01" />
		</symbol>

		<symbol id="tiktok" viewBox="0 0 24 24" fill="none" stroke="currentColor" stroke-linecap="round" stroke-linejoin="round" stroke-width="2" class="bicon bicon-tabler bicons-tabler-outline bicon-tabler-brand-tiktok">
			<path d="M0 0h24v24H0z" stroke="none" />
			<path d="M21 7.917v4.034A9.95 9.95 0 0 1 16 10v4.5a6.5 6.5 0 1 1-8-6.326V12.5a2.5 2.5 0 1 0 4 2V3h4.083A6.005 6.005 0 0 0 21 7.917" />
		</symbol>

		<symbol id="x" viewBox="0 0 24 24" fill="none" stroke="currentColor" stroke-linecap="round" stroke-linejoin="round" stroke-width="2" class="cicon cicon-tabler cicons-tabler-outline cicon-tabler-brand-x">
			<path d="M0 0h24v24H0z" stroke="none" />
			<path d="m4 4 11.733 16H20L8.267 4zm0 16 6.768-6.768m2.46-2.46L20 4" />
		</symbol>

		<symbol id="youtube" viewBox="0 0 24 24" fill="currentColor" class="dicon dicon-tabler dicons-tabler-filled dicon-tabler-brand-youtube">
			<path fill="none" d="M0 0h24v24H0z" />
			<path d="M18 3a5 5 0 0 1 5 5v8a5 5 0 0 1-5 5H6a5 5 0 0 1-5-5V8a5 5 0 0 1 5-5zM9 9v6a1 1 0 0 0 1.514.857l5-3a1 1 0 0 0 0-1.714l-5-3A1 1 0 0 0 9 9" />
		</symbol>

		<symbol id="arrow-narrow-right" viewBox="0 0 24 24" fill="none" stroke="currentColor" stroke-width="2" stroke-linecap="round" stroke-linejoin="round" class="icon icon-tabler icons-tabler-outline icon-tabler-arrow-narrow-right">
			<path d="M0 0h24v24H0z" stroke="none" fill="none" />
			<path d="M5 12h14" />
			<path d="m15 16 4-4" />
			<path d="m15 8 4 4" />
		</symbol>
        <symbol id="arrow-narrow-left" viewBox="0 0 24 24" fill="none" stroke="currentColor" stroke-width="2" stroke-linecap="round" stroke-linejoin="round" class="icon icon-tabler icons-tabler-outline icon-tabler-arrow-narrow-left"><path stroke="none" d="M0 0h24v24H0z" fill="none" /><path d="M5 12l14 0" /><path d="M5 12l4 4" /><path d="M5 12l4 -4" /></symbol>

		<symbol id="menu" viewBox="0 0 24 24" fill="currentColor" class="icon icon-tabler icons-tabler-filled icon-tabler-menu-2">
			<path stroke="none" d="M0 0h24v24H0z" fill="none" />
			<path d="M21 6a1 1 0 0 1 -1 1h-16a1 1 0 1 1 0 -2h16a1 1 0 0 1 1 1" />
			<path d="M21 12a1 1 0 0 1 -1 1h-16a1 1 0 0 1 0 -2h16a1 1 0 0 1 1 1" />
			<path d="M21 18a1 1 0 0 1 -1 1h-16a1 1 0 1 1 0 -2h16a1 1 0 0 1 1 1" />
		</symbol>

		<symbol id="x-close" viewBox="0 0 24 24" fill="currentColor" class="icon icon-tabler icons-tabler-filled icon-tabler-x">
			<path stroke="none" d="M0 0h24v24H0z" fill="none" />
			<path d="M6.707 5.293l5.293 5.292l5.293 -5.292a1 1 0 0 1 1.414 1.414l-5.292 5.293l5.292 5.293a1 1 0 0 1 -1.414 1.414l-5.293 -5.292l-5.293 5.292a1 1 0 1 1 -1.414 -1.414l5.292 -5.293l-5.292 -5.293a1 1 0 0 1 1.414 -1.414" />
		</symbol>
	</defs>
</svg>